<?xml version="1.0" encoding="UTF-8" standalone="no"?>
<!-- Created with Inkscape (http://www.inkscape.org/) -->

<svg
   xmlns:dc="http://purl.org/dc/elements/1.1/"
   xmlns:cc="http://creativecommons.org/ns#"
   xmlns:rdf="http://www.w3.org/1999/02/22-rdf-syntax-ns#"
   xmlns:svg="http://www.w3.org/2000/svg"
   xmlns="http://www.w3.org/2000/svg"
   version="1.1"
   width="100"
   height="100"
   viewBox="0 0 100 100"
   id="Icons"
   xml:space="preserve"><metadata
   id="metadata8"><rdf:RDF><cc:Work
       rdf:about=""><dc:format>image/svg+xml</dc:format><dc:type
         rdf:resource="http://purl.org/dc/dcmitype/StillImage" /><dc:title></dc:title></cc:Work></rdf:RDF></metadata><defs
   id="defs6" />
<path
   d="m 70.709,15.029 c 1.17,2.657 1.928,7.07 0.797,10.301 4.625,3.949 6.214,13.549 3.982,21.394 6.592,0.503 14.443,-0.242 19.512,1.781 -4.738,-0.609 -11.209,-1.804 -17.32,-1.388 -1.158,0.079 -2.874,-0.044 -2.79,1.585 7.075,0.556 14.104,1.16 19.913,2.973 -5.761,-0.941 -12.754,-2.374 -19.913,-2.574 -2.957,5.835 -8.907,8.703 -17.122,9.307 0.883,1.921 2.574,2.653 2.987,5.744 0.616,4.618 -0.964,11.381 0.595,14.459 0.748,1.475 1.967,1.514 2.789,2.775 -2.012,2.381 -7.001,-0.267 -7.568,-2.775 -0.973,-4.295 1.482,-10.954 -1.193,-13.865 0.189,4.684 -1.108,11.264 0.199,15.449 0.515,1.646 2.002,2.281 1.593,3.765 -9.352,0.95 -5.444,-12.104 -6.972,-19.809 -1.411,0.1 -0.791,2.113 -0.796,2.972 -0.04,7.524 1.54,17.844 -6.57,16.837 -0.237,-1.581 1.088,-2.119 1.593,-3.563 1.479,-4.234 -0.277,-10.542 0.401,-15.651 -3.095,2.333 0.325,10.48 -1.593,14.657 -1.105,2.404 -4.666,3.45 -7.367,2.377 0.352,-1.79 2.2,-1.501 2.984,-3.169 1.096,-2.325 0.008,-5.674 0.399,-9.111 -5.729,1.143 -10.173,-0.166 -12.348,-3.764 -0.973,-1.615 -1.214,-3.52 -2.39,-4.951 -1.17,-1.432 -3.04,-1.625 -3.582,-3.564 7.095,-1.708 7.367,7.302 13.739,7.525 1.954,0.071 2.97,-0.564 4.778,-0.989 0.506,-2.272 1.589,-3.966 3.186,-5.153 C 34.703,57.519 28.155,55.05 25.11,49.1 17.902,49.455 11.306,50.417 5.197,51.871 10.742,49.857 17.581,49.135 24.912,48.898 24.48,46.302 20.693,47.016 18.342,47.116 13.973,47.31 8.473,47.853 5,48.505 10.034,46.71 17.098,46.934 23.918,46.92 21.832,40.38 22.555,29.991 27.104,26.122 25.815,22.873 26.215,17.559 27.9,15.029 c 5.079,0.228 8.159,2.443 11.35,4.557 3.957,-1.125 8.118,-1.685 13.54,-1.387 2.28,0.126 4.652,1.151 6.369,0.989 1.685,-0.158 3.542,-2.049 5.178,-2.771 2.131,-0.941 3.934,-1.3 6.372,-1.388 z"
   id="Github__x28_alt_x29_"
   style="fill:#ffffff" />
</svg>