<?xml version="1.0" encoding="UTF-8" standalone="no"?>
<!-- Created with Inkscape (http://www.inkscape.org/) -->

<svg
   xmlns:dc="http://purl.org/dc/elements/1.1/"
   xmlns:cc="http://creativecommons.org/ns#"
   xmlns:rdf="http://www.w3.org/1999/02/22-rdf-syntax-ns#"
   xmlns:svg="http://www.w3.org/2000/svg"
   xmlns="http://www.w3.org/2000/svg"
   version="1.1"
   width="100"
   height="100"
   viewBox="0 0 100 100"
   id="Icons"
   xml:space="preserve"><metadata
   id="metadata8"><rdf:RDF><cc:Work
       rdf:about=""><dc:format>image/svg+xml</dc:format><dc:type
         rdf:resource="http://purl.org/dc/dcmitype/StillImage" /><dc:title></dc:title></cc:Work></rdf:RDF></metadata><defs
   id="defs6" />
<path
   d="m 84.803,46.564 c 5.055,-0.417 8.483,-2.715 9.803,-5.833 -1.824,1.12 -7.484,2.341 -10.61,1.178 -0.153,-0.734 -0.324,-1.432 -0.492,-2.062 -2.382,-8.746 -10.537,-15.792 -19.082,-14.941 0.691,-0.279 1.392,-0.539 2.092,-0.772 0.94,-0.337 6.459,-1.235 5.59,-3.183 -0.733,-1.713 -7.475,1.295 -8.744,1.688 1.675,-0.63 4.447,-1.714 4.743,-3.64 -2.567,0.352 -5.087,1.566 -7.034,3.331 0.703,-0.757 1.236,-1.679 1.349,-2.672 -6.848,4.375 -10.848,13.195 -14.085,21.75 -2.542,-2.463 -4.795,-4.403 -6.816,-5.48 -5.67,-3.041 -12.449,-6.213 -23.091,-10.164 -0.327,3.521 1.741,8.203 7.7,11.316 -1.291,-0.173 -3.652,0.213 -5.54,0.665 0.769,4.034 3.28,7.357 10.079,8.964 -3.107,0.205 -4.713,0.912 -6.168,2.436 1.415,2.805 4.868,6.107 11.08,5.429 -6.906,2.977 -2.816,8.49 2.804,7.667 C 28.794,72.143 13.679,71.416 5,63.134 27.661,94.013 76.921,81.396 84.262,51.653 89.761,51.7 92.995,49.748 95,47.596 91.831,48.134 87.239,47.578 84.803,46.564 z"
   id="Twitter__x28_alt_x29_"
   style="fill:#ffffff" />
</svg>